<?xml version="1.0" encoding="iso-8859-1"?>
<!-- Generator: Adobe Illustrator 19.0.0, SVG Export Plug-In . SVG Version: 6.00 Build 0)  -->
<svg version="1.1" id="Layer_1" xmlns="http://www.w3.org/2000/svg" xmlns:xlink="http://www.w3.org/1999/xlink" x="0px" y="0px"
	 viewBox="0 0 512 512" style="enable-background:new 0 0 512 512;" xml:space="preserve">
<g>
	<rect x="8.17" y="8.17" style="fill:#88ACB5;" width="65.362" height="65.362"/>
	<rect x="438.468" y="8.17" style="fill:#88ACB5;" width="65.362" height="65.362"/>
	<rect x="8.17" y="438.468" style="fill:#88ACB5;" width="65.362" height="65.362"/>
	<rect x="438.468" y="438.468" style="fill:#88ACB5;" width="65.362" height="65.362"/>
</g>
<path d="M471.149,125.282c4.512,0,8.17-3.657,8.17-8.17v-35.41h24.511c4.512,0,8.17-3.657,8.17-8.17V8.17
	c0-4.513-3.658-8.17-8.17-8.17h-65.362c-4.512,0-8.17,3.657-8.17,8.17v24.511H81.702V8.17c0-4.513-3.658-8.17-8.17-8.17H8.17
	C3.658,0,0,3.657,0,8.17v65.362c0,4.513,3.658,8.17,8.17,8.17h24.511v348.596H8.17c-4.512,0-8.17,3.657-8.17,8.17v65.362
	c0,4.513,3.658,8.17,8.17,8.17h65.362c4.512,0,8.17-3.657,8.17-8.17v-24.511h348.596v24.511c0,4.513,3.658,8.17,8.17,8.17h65.362
	c4.512,0,8.17-3.657,8.17-8.17v-65.362c0-4.513-3.658-8.17-8.17-8.17h-24.511V149.793c0-4.513-3.658-8.17-8.17-8.17
	c-4.512,0-8.17,3.657-8.17,8.17v280.505h-24.511c-4.512,0-8.17,3.657-8.17,8.17v24.511H81.702v-24.511c0-4.513-3.658-8.17-8.17-8.17
	H49.021V81.702h24.511c4.512,0,8.17-3.657,8.17-8.17V49.021h348.596v24.511c0,4.513,3.658,8.17,8.17,8.17h24.511v35.41
	C462.979,121.624,466.637,125.282,471.149,125.282z M446.638,446.638h49.021v49.021h-49.021V446.638z M65.362,495.66H16.34v-49.021
	h49.021V495.66z M65.362,65.362H16.34V16.34h49.021V65.362z M446.638,16.34h49.021v49.021h-49.021V16.34z"/>
<path d="M239.66,386.723H117.106c-4.512,0-8.17,3.657-8.17,8.17c0,4.513,3.658,8.17,8.17,8.17H239.66c4.512,0,8.17-3.657,8.17-8.17
	C247.83,390.38,244.172,386.723,239.66,386.723z"/>
<path d="M394.894,386.723H272.34c-4.512,0-8.17,3.657-8.17,8.17c0,4.513,3.658,8.17,8.17,8.17h122.553c4.512,0,8.17-3.657,8.17-8.17
	C403.064,390.38,399.406,386.723,394.894,386.723z"/>
<path d="M239.66,352H117.106c-4.512,0-8.17,3.657-8.17,8.17c0,4.513,3.658,8.17,8.17,8.17H239.66c4.512,0,8.17-3.657,8.17-8.17
	C247.83,355.657,244.172,352,239.66,352z"/>
<path d="M394.894,352H272.34c-4.512,0-8.17,3.657-8.17,8.17c0,4.513,3.658,8.17,8.17,8.17h122.553c4.512,0,8.17-3.657,8.17-8.17
	C403.064,355.657,399.406,352,394.894,352z"/>
<path d="M239.66,317.277H117.106c-4.512,0-8.17,3.657-8.17,8.17c0,4.513,3.658,8.17,8.17,8.17H239.66c4.512,0,8.17-3.657,8.17-8.17
	C247.83,320.934,244.172,317.277,239.66,317.277z"/>
<path d="M394.894,317.277H272.34c-4.512,0-8.17,3.657-8.17,8.17c0,4.513,3.658,8.17,8.17,8.17h122.553c4.512,0,8.17-3.657,8.17-8.17
	C403.064,320.934,399.406,317.277,394.894,317.277z"/>
<path d="M394.894,282.552H117.106c-4.512,0-8.17,3.657-8.17,8.17c0,4.513,3.658,8.17,8.17,8.17h277.787
	c4.512,0,8.17-3.657,8.17-8.17C403.064,286.209,399.406,282.552,394.894,282.552z"/>
<path d="M402.596,258.702c0.052-0.149,0.102-0.3,0.146-0.453c0.035-0.123,0.065-0.246,0.095-0.369c0.031-0.13,0.06-0.259,0.084-0.39
	c0.028-0.15,0.05-0.301,0.069-0.451c0.014-0.11,0.028-0.22,0.037-0.332c0.015-0.171,0.022-0.341,0.026-0.512
	c0.001-0.065,0.01-0.13,0.01-0.196V117.112c0-0.066-0.009-0.13-0.01-0.196c-0.004-0.171-0.011-0.341-0.026-0.512
	c-0.01-0.112-0.024-0.222-0.037-0.332c-0.02-0.15-0.041-0.301-0.069-0.451c-0.024-0.132-0.053-0.261-0.084-0.39
	c-0.029-0.123-0.06-0.246-0.095-0.369c-0.044-0.154-0.094-0.304-0.146-0.453c-0.035-0.098-0.069-0.196-0.108-0.294
	c-0.066-0.168-0.139-0.331-0.217-0.493c-0.025-0.054-0.045-0.11-0.072-0.163c-0.015-0.029-0.033-0.056-0.048-0.085
	c-0.081-0.157-0.169-0.309-0.259-0.46c-0.053-0.088-0.105-0.179-0.16-0.264c-0.081-0.124-0.169-0.243-0.256-0.363
	c-0.075-0.103-0.149-0.208-0.23-0.306c-0.075-0.093-0.156-0.181-0.234-0.27c-0.099-0.112-0.197-0.226-0.302-0.332
	c-0.074-0.075-0.154-0.145-0.23-0.217c-0.114-0.108-0.229-0.217-0.349-0.317c-0.088-0.074-0.181-0.141-0.272-0.21
	c-0.114-0.087-0.227-0.176-0.345-0.258c-0.118-0.081-0.242-0.154-0.364-0.229c-0.097-0.059-0.192-0.122-0.291-0.176
	c-0.15-0.084-0.307-0.158-0.464-0.232c-0.077-0.037-0.153-0.077-0.23-0.111c-0.168-0.073-0.34-0.136-0.512-0.198
	c-0.075-0.027-0.148-0.058-0.223-0.082c-0.162-0.053-0.329-0.097-0.496-0.139c-0.094-0.024-0.186-0.051-0.28-0.072
	c-0.144-0.032-0.29-0.054-0.436-0.078c-0.125-0.021-0.251-0.042-0.377-0.058c-0.12-0.014-0.242-0.022-0.364-0.031
	c-0.156-0.011-0.313-0.022-0.47-0.024c-0.039,0-0.077-0.005-0.117-0.005H117.105c-0.034,0-0.068,0.004-0.101,0.005
	c-0.171,0.002-0.34,0.013-0.51,0.026c-0.109,0.008-0.219,0.014-0.327,0.027c-0.138,0.016-0.275,0.04-0.412,0.063
	c-0.136,0.023-0.271,0.044-0.405,0.073c-0.103,0.023-0.205,0.052-0.307,0.078c-0.159,0.041-0.318,0.083-0.473,0.133
	c-0.081,0.026-0.159,0.059-0.239,0.087c-0.169,0.061-0.337,0.122-0.5,0.194c-0.078,0.034-0.154,0.074-0.231,0.111
	c-0.157,0.074-0.314,0.149-0.465,0.233c-0.096,0.053-0.187,0.113-0.281,0.171c-0.126,0.077-0.253,0.151-0.375,0.235
	c-0.113,0.078-0.222,0.164-0.332,0.248c-0.096,0.073-0.194,0.144-0.287,0.221c-0.115,0.097-0.224,0.202-0.336,0.305
	c-0.082,0.076-0.166,0.15-0.244,0.23c-0.1,0.102-0.195,0.211-0.291,0.319c-0.083,0.094-0.167,0.185-0.245,0.282
	c-0.077,0.096-0.149,0.197-0.222,0.296c-0.089,0.122-0.179,0.244-0.263,0.37c-0.054,0.085-0.106,0.172-0.158,0.259
	c-0.092,0.151-0.18,0.305-0.261,0.462c-0.015,0.029-0.033,0.056-0.048,0.085c-0.027,0.053-0.046,0.109-0.072,0.163
	c-0.077,0.162-0.15,0.326-0.217,0.493c-0.038,0.098-0.073,0.195-0.108,0.294c-0.052,0.149-0.102,0.3-0.146,0.453
	c-0.036,0.123-0.065,0.246-0.095,0.369c-0.031,0.13-0.06,0.259-0.084,0.39c-0.028,0.15-0.05,0.301-0.069,0.451
	c-0.014,0.11-0.028,0.22-0.038,0.332c-0.015,0.171-0.022,0.341-0.026,0.512c-0.001,0.065-0.01,0.13-0.01,0.196v138.887
	c0,0.066,0.009,0.13,0.01,0.196c0.004,0.171,0.011,0.341,0.026,0.512c0.01,0.112,0.024,0.222,0.038,0.332
	c0.02,0.15,0.041,0.301,0.069,0.451c0.024,0.132,0.053,0.261,0.084,0.39c0.029,0.123,0.06,0.246,0.095,0.369
	c0.044,0.154,0.094,0.304,0.146,0.453c0.035,0.098,0.069,0.196,0.108,0.294c0.066,0.168,0.139,0.331,0.216,0.492
	c0.026,0.054,0.045,0.11,0.072,0.163c0.011,0.023,0.026,0.041,0.038,0.063c0.162,0.316,0.341,0.623,0.541,0.914
	c0.035,0.05,0.073,0.096,0.109,0.146c0.164,0.227,0.34,0.444,0.526,0.654c0.069,0.077,0.136,0.154,0.207,0.228
	c0.223,0.232,0.455,0.454,0.705,0.659c0.047,0.038,0.098,0.072,0.145,0.109c0.219,0.172,0.448,0.332,0.684,0.482
	c0.078,0.049,0.156,0.097,0.235,0.143c0.265,0.155,0.536,0.297,0.818,0.422c0.023,0.01,0.044,0.022,0.066,0.032
	c0.312,0.134,0.633,0.246,0.963,0.341c0.07,0.021,0.141,0.036,0.211,0.054c0.255,0.066,0.515,0.121,0.779,0.162
	c0.095,0.015,0.187,0.032,0.283,0.044c0.297,0.036,0.598,0.059,0.905,0.062c0.033,0.001,0.065,0.007,0.099,0.007
	c0.012,0,0.025-0.002,0.037-0.002h277.7c0.013,0,0.025,0.002,0.037,0.002c0.033,0,0.065-0.007,0.099-0.007
	c0.306-0.003,0.608-0.026,0.905-0.062c0.095-0.012,0.188-0.028,0.282-0.042c0.265-0.041,0.525-0.096,0.78-0.162
	c0.07-0.019,0.141-0.034,0.21-0.053c0.33-0.096,0.653-0.207,0.964-0.342c0.021-0.009,0.04-0.02,0.061-0.029
	c0.283-0.125,0.557-0.269,0.822-0.424c0.078-0.046,0.156-0.094,0.233-0.142c0.237-0.15,0.467-0.31,0.687-0.484
	c0.047-0.037,0.097-0.069,0.143-0.107c0.249-0.205,0.483-0.427,0.706-0.66c0.071-0.073,0.137-0.15,0.206-0.227
	c0.186-0.209,0.363-0.427,0.527-0.655c0.035-0.049,0.074-0.094,0.108-0.144c0.2-0.291,0.379-0.597,0.541-0.914
	c0.011-0.023,0.026-0.041,0.038-0.063c0.027-0.053,0.046-0.109,0.072-0.163c0.076-0.161,0.15-0.325,0.216-0.492
	C402.528,258.899,402.562,258.801,402.596,258.702z M125.277,130.331l112.454,56.224l-112.454,56.224V130.331z M151.716,125.282
	h208.566L256,177.421L151.716,125.282z M256,195.69l104.284,52.139H151.716L256,195.69z M274.27,186.555l112.454-56.224v112.449
	L274.27,186.555z"/>
<g>
</g>
<g>
</g>
<g>
</g>
<g>
</g>
<g>
</g>
<g>
</g>
<g>
</g>
<g>
</g>
<g>
</g>
<g>
</g>
<g>
</g>
<g>
</g>
<g>
</g>
<g>
</g>
<g>
</g>
</svg>
